<svg id="Layer_1" xmlns="http://www.w3.org/2000/svg" xmlns:xlink="http://www.w3.org/1999/xlink" viewBox="0 0 300 300"><style>.st0{clip-path:url(#SVGID_2_);fill:#fbbc05}.st1{clip-path:url(#SVGID_4_);fill:#ea4335}.st2{clip-path:url(#SVGID_6_);fill:#34a853}.st3{clip-path:url(#SVGID_8_);fill:#4285f4}</style><defs><path id="SVGID_1_" d="M286.7 124.5H153.3v54.1h76.8c-7.2 34.4-37.1 54.1-76.8 54.1-46.9 0-84.7-36.9-84.7-82.7s37.8-82.7 84.7-82.7c20.2 0 38.4 7 52.7 18.5L247.7 45c-25.4-21.6-58-35-94.4-35C73.8 10 10 72.4 10 150s63.8 140 143.3 140c71.6 0 136.7-50.9 136.7-140 0-8.3-1.3-17.2-3.3-25.5z"/></defs><clipPath id="SVGID_2_"><use xlink:href="#SVGID_1_" overflow="visible"/></clipPath><path class="st0" d="M-3 232.7V67.3L107.7 150-3 232.7z"/><defs><path id="SVGID_3_" d="M286.7 124.5H153.3v54.1h76.8c-7.2 34.4-37.1 54.1-76.8 54.1-46.9 0-84.7-36.9-84.7-82.7s37.8-82.7 84.7-82.7c20.2 0 38.4 7 52.7 18.5L247.7 45c-25.4-21.6-58-35-94.4-35C73.8 10 10 72.4 10 150s63.8 140 143.3 140c71.6 0 136.7-50.9 136.7-140 0-8.3-1.3-17.2-3.3-25.5z"/></defs><clipPath id="SVGID_4_"><use xlink:href="#SVGID_3_" overflow="visible"/></clipPath><path class="st1" d="M-3 67.3L107.7 150l45.6-38.8 156.3-24.8V-2.7H-3v70z"/><g><defs><path id="SVGID_5_" d="M286.7 124.5H153.3v54.1h76.8c-7.2 34.4-37.1 54.1-76.8 54.1-46.9 0-84.7-36.9-84.7-82.7s37.8-82.7 84.7-82.7c20.2 0 38.4 7 52.7 18.5L247.7 45c-25.4-21.6-58-35-94.4-35C73.8 10 10 72.4 10 150s63.8 140 143.3 140c71.6 0 136.7-50.9 136.7-140 0-8.3-1.3-17.2-3.3-25.5z"/></defs><clipPath id="SVGID_6_"><use xlink:href="#SVGID_5_" overflow="visible"/></clipPath><path class="st2" d="M-3 232.7L192.3 86.4l51.4 6.4 65.8-95.5v305.5H-3v-70.1z"/></g><g><defs><path id="SVGID_7_" d="M286.7 124.5H153.3v54.1h76.8c-7.2 34.4-37.1 54.1-76.8 54.1-46.9 0-84.7-36.9-84.7-82.7s37.8-82.7 84.7-82.7c20.2 0 38.4 7 52.7 18.5L247.7 45c-25.4-21.6-58-35-94.4-35C73.8 10 10 72.4 10 150s63.8 140 143.3 140c71.6 0 136.7-50.9 136.7-140 0-8.3-1.3-17.2-3.3-25.5z"/></defs><clipPath id="SVGID_8_"><use xlink:href="#SVGID_7_" overflow="visible"/></clipPath><path class="st3" d="M309.5 302.7L107.7 150l-26-19.1 227.9-63.6v235.4z"/></g></svg>