<svg id="Layer_1" xmlns="http://www.w3.org/2000/svg" viewBox="0 0 300 300"><style>.st0{fill:#069}.st1{fill:#fff}</style><path class="st0" d="M10 30.1C10 19 19.3 10 30.7 10h238.6c11.4 0 20.7 9 20.7 20.1V270c0 11.1-9.3 20.1-20.7 20.1H30.7c-11.4 0-20.7-9-20.7-20.1V30.1z"/><path class="st1" d="M94.9 244.4V118H52.6v126.4h42.3zM73.7 100.7c14.7 0 23.9-9.7 23.9-21.8C97.4 66.4 88.5 57 74 57s-23.9 9.4-23.9 21.8c0 12.1 9.2 21.8 23.4 21.8h.2zm44.6 143.7h42.3v-70.6c0-3.8.3-7.6 1.4-10.3 3.1-7.6 10-15.4 21.7-15.4 15.3 0 21.4 11.6 21.4 28.6v67.6h42.3v-72.5c0-38.8-20.9-56.9-48.7-56.9-22.8 0-32.8 12.7-38.4 21.3h.3V118h-42.3c.5 11.8 0 126.4 0 126.4z"/></svg>