<svg id="Layer_1" xmlns="http://www.w3.org/2000/svg" viewBox="0 0 300 300"><style>.st0{fill:#1da1f2}.st1{fill:#fff}</style><path class="st0" d="M280 290H20c-5.5 0-10-4.5-10-10V20c0-5.5 4.5-10 10-10h260c5.5 0 10 4.5 10 10v260c0 5.5-4.5 10-10 10z"/><path class="st1" d="M100.7 258.1c100.4 0 155.3-83.2 155.3-155.3 0-2.4 0-4.7-.2-7.1 10.7-7.7 19.9-17.3 27.2-28.3-9.8 4.3-20.3 7.3-31.3 8.6 11.3-6.8 19.9-17.4 24-30.2C265 52.2 253.3 56.6 241 59c-10-10.6-24.1-17.2-39.8-17.2-30.1 0-54.6 24.4-54.6 54.6 0 4.3.5 8.4 1.4 12.4-45.4-2.3-85.6-24-112.5-57-4.8 8.3-7.4 17.8-7.4 27.4 0 18.9 9.6 35.6 24.3 45.4-8.7-.3-17.1-2.6-24.7-6.8v.7c0 26.4 18.8 48.5 43.8 53.5-4.7 1.3-9.5 1.9-14.4 1.9-3.5 0-6.9-.3-10.3-1 6.9 21.7 27.1 37.5 51 37.9-18.7 14.6-42.2 23.4-67.8 23.4-4.4 0-8.7-.2-13-.8 24.2 15.7 52.8 24.7 83.7 24.7"/></svg>