<svg id="Layer_1" xmlns="http://www.w3.org/2000/svg" viewBox="0 0 300 300"><style>.st0{fill:#592c71}.st1{fill:#fff}</style><path class="st0" d="M280 290H20c-5.5 0-10-4.5-10-10V20c0-5.5 4.5-10 10-10h260c5.5 0 10 4.5 10 10v260c0 5.5-4.5 10-10 10z"/><path class="st1" d="M270.4 102.7c-4.5.4-23 4.6-29.2 5.9-6.7 1.8-67.7 48.9-71.7 60.5-.9 4-1.3 10.2-1.3 16l-.4 9.4c0 6.7 1.9 17.4 2.7 23.2 4 .9 33 .1 38.4 1l-.7 12c-5.2-.4-42.1-.3-63.1-.3-10.7 0-45 1.2-55.6.9l2-11.4c5.8-.4 29.7 1 35-4.5 2.6-2.8 1.8-5.7 1.8-21.7V186c0-3.6 0-10.2-.9-16.5-2.2-6.7-55.9-73.7-69.7-84.4-4-1.3-29.1-3.8-35.3-5.2L22 69.7c3.1-1.6 31 .4 58.1-.6 17.8-.7 58.4 0 63.4.6l-1.3 9c-5.3 1.3-31.1 1.8-37.7 3.6 17.4 25.8 44.8 59.1 53.7 72 4.9-7.1 47.9-36.7 49.3-47-6.7-1.3-28.8-4.5-32.3-4.5L173 91.1c6.1-.9 37.9 0 53.8 0 13.7 0 42.9 0 51.2.7l-7.6 10.9"/></svg>